<?xml version="1.0" encoding="UTF-8"?>
<svg xmlns="http://www.w3.org/2000/svg" xmlns:xlink="http://www.w3.org/1999/xlink" width="36px" height="36px" viewBox="0 0 36 36" version="1.1">
<g id="surface1">
<path style=" stroke:none;fill-rule:nonzero;fill:rgb(8.235294%,44.705882%,71.372549%);fill-opacity:1;" d="M 2.464844 0.28125 L 5.292969 32.03125 L 17.980469 35.566406 L 30.707031 32.015625 L 33.535156 0.28125 Z M 27.660156 7.554688 L 26.71875 18.132812 L 26.722656 18.1875 L 26.71875 18.320312 L 26.050781 25.714844 L 25.976562 26.371094 L 18 28.578125 L 17.992188 28.582031 L 10.03125 26.363281 L 9.492188 20.25 L 13.398438 20.25 L 13.671875 23.359375 L 18 24.53125 L 18 24.535156 L 22.34375 23.34375 L 22.800781 18.28125 L 13.722656 18.28125 L 13.644531 17.425781 L 13.46875 15.421875 L 13.375 14.34375 L 23.148438 14.34375 L 23.503906 10.40625 L 8.617188 10.40625 L 8.539062 9.550781 L 8.363281 7.546875 L 8.269531 6.46875 L 27.753906 6.46875 Z M 27.660156 7.554688 "/>
</g>
</svg>
