<?xml version="1.0" encoding="UTF-8"?>
<svg xmlns="http://www.w3.org/2000/svg" xmlns:xlink="http://www.w3.org/1999/xlink" width="36px" height="36px" viewBox="0 0 36 36" version="1.1">
<g id="surface1">
<path style=" stroke:none;fill-rule:nonzero;fill:rgb(3.921569%,81.176471%,51.372549%);fill-opacity:1;" d="M 12.796875 36.28125 C 16.144531 36.28125 18.84375 33.582031 18.84375 30.234375 L 18.84375 24.1875 L 12.796875 24.1875 C 9.449219 24.1875 6.75 26.886719 6.75 30.234375 C 6.75 33.582031 9.449219 36.28125 12.796875 36.28125 Z M 12.796875 36.28125 "/>
<path style=" stroke:none;fill-rule:nonzero;fill:rgb(63.529412%,34.901961%,100%);fill-opacity:1;" d="M 6.75 18.140625 C 6.75 14.792969 9.449219 12.09375 12.796875 12.09375 L 18.84375 12.09375 L 18.84375 24.1875 L 12.796875 24.1875 C 9.449219 24.1875 6.75 21.488281 6.75 18.140625 Z M 6.75 18.140625 "/>
<path style=" stroke:none;fill-rule:nonzero;fill:rgb(94.901961%,30.588235%,11.764706%);fill-opacity:1;" d="M 6.75 6.046875 C 6.75 2.699219 9.449219 0 12.796875 0 L 18.84375 0 L 18.84375 12.09375 L 12.796875 12.09375 C 9.449219 12.09375 6.75 9.394531 6.75 6.046875 Z M 6.75 6.046875 "/>
<path style=" stroke:none;fill-rule:nonzero;fill:rgb(100%,44.705882%,38.431373%);fill-opacity:1;" d="M 18.84375 0 L 24.890625 0 C 28.238281 0 30.9375 2.699219 30.9375 6.046875 C 30.9375 9.394531 28.238281 12.09375 24.890625 12.09375 L 18.84375 12.09375 Z M 18.84375 0 "/>
<path style=" stroke:none;fill-rule:nonzero;fill:rgb(10.196078%,73.72549%,99.607843%);fill-opacity:1;" d="M 30.9375 18.140625 C 30.9375 21.488281 28.238281 24.1875 24.890625 24.1875 C 21.542969 24.1875 18.84375 21.488281 18.84375 18.140625 C 18.84375 14.792969 21.542969 12.09375 24.890625 12.09375 C 28.238281 12.09375 30.9375 14.792969 30.9375 18.140625 Z M 30.9375 18.140625 "/>
</g>
</svg>
