<?xml version="1.0" encoding="UTF-8"?>
<svg xmlns="http://www.w3.org/2000/svg" xmlns:xlink="http://www.w3.org/1999/xlink" width="36px" height="36px" viewBox="0 0 36 36" version="1.1">
<defs>
<clipPath id="clip1">
  <path d="M 0 0.0429688 L 35.957031 0.0429688 L 35.957031 36 L 0 36 Z M 0 0.0429688 "/>
</clipPath>
</defs>
<g id="surface1">
<g clip-path="url(#clip1)" clip-rule="nonzero">
<path style=" stroke:none;fill-rule:nonzero;fill:rgb(94.117647%,23.529412%,18.039216%);fill-opacity:1;" d="M 35.277344 16.421875 L 19.578125 0.722656 C 18.675781 -0.183594 17.207031 -0.183594 16.304688 0.722656 L 13.042969 3.984375 L 17.179688 8.117188 C 18.171875 7.78125 19.265625 8.035156 20.007812 8.777344 C 20.753906 9.523438 21.007812 10.628906 20.660156 11.625 L 24.648438 15.609375 C 25.644531 15.261719 26.75 15.519531 27.496094 16.265625 C 28.570312 17.339844 28.570312 19.085938 27.496094 20.160156 C 26.417969 21.234375 24.671875 21.234375 23.597656 20.160156 C 22.808594 19.371094 22.574219 18.191406 23 17.164062 L 19.28125 13.445312 L 19.28125 23.226562 C 20.078125 23.621094 20.632812 24.375 20.777344 25.25 C 20.921875 26.125 20.636719 27.019531 20.007812 27.644531 C 18.933594 28.722656 17.1875 28.722656 16.113281 27.644531 C 15.035156 26.570312 15.035156 24.824219 16.113281 23.75 C 16.371094 23.492188 16.675781 23.285156 17.015625 23.148438 L 17.015625 13.277344 C 16.335938 12.996094 15.796875 12.457031 15.515625 11.78125 C 15.234375 11.101562 15.238281 10.339844 15.519531 9.660156 L 11.441406 5.585938 L 0.675781 16.347656 C -0.226562 17.253906 -0.226562 18.71875 0.675781 19.625 L 16.375 35.324219 C 17.28125 36.226562 18.746094 36.226562 19.652344 35.324219 L 35.277344 19.695312 C 36.183594 18.792969 36.183594 17.324219 35.277344 16.421875 "/>
</g>
</g>
</svg>
