<?xml version="1.0" encoding="UTF-8"?>
<svg xmlns="http://www.w3.org/2000/svg" xmlns:xlink="http://www.w3.org/1999/xlink" width="36px" height="36px" viewBox="0 0 36 36" version="1.1">
<g id="surface1">
<path style=" stroke:none;fill-rule:nonzero;fill:rgb(89.411765%,30.196078%,14.901961%);fill-opacity:1;" d="M 2.539062 0.5625 L 5.355469 32.089844 L 17.980469 35.578125 L 30.644531 32.09375 L 33.460938 0.5625 Z M 27.605469 8.027344 L 27.429688 10.042969 L 27.351562 10.96875 L 12.539062 10.96875 L 12.894531 14.90625 L 27 14.90625 L 26.90625 15.882812 L 25.996094 26.039062 L 25.929688 26.679688 L 18 28.859375 L 17.992188 28.863281 L 10.066406 26.777344 L 9.527344 20.8125 L 13.414062 20.8125 L 13.6875 23.882812 L 17.988281 25.03125 L 18 25.03125 L 18 24.878906 L 22.320312 23.789062 L 22.769531 18.84375 L 9.355469 18.84375 L 8.402344 8.125 L 8.3125 7.03125 L 27.699219 7.03125 Z M 27.605469 8.027344 "/>
</g>
</svg>
