<?xml version="1.0" encoding="UTF-8"?>
<svg xmlns="http://www.w3.org/2000/svg" xmlns:xlink="http://www.w3.org/1999/xlink" width="36px" height="36px" viewBox="0 0 36 36" version="1.1">
<g id="surface1">
<path style=" stroke:none;fill-rule:nonzero;fill:rgb(94.117647%,85.882353%,30.980392%);fill-opacity:1;" d="M 0.5625 0.28125 L 0.5625 35.4375 L 35.71875 35.4375 L 35.71875 0.28125 Z M 19.160156 30.238281 C 18.640625 31.292969 17.648438 31.984375 16.5 32.320312 C 14.738281 32.722656 13.050781 32.492188 11.796875 31.742188 C 10.957031 31.226562 10.300781 30.433594 9.855469 29.519531 L 12.53125 27.878906 C 12.554688 27.886719 12.625 28.015625 12.71875 28.179688 C 13.0625 28.75 13.355469 29.15625 13.933594 29.441406 C 14.503906 29.636719 15.75 29.757812 16.234375 28.757812 C 16.527344 28.25 16.433594 26.613281 16.433594 24.804688 C 16.433594 21.957031 16.449219 19.125 16.449219 16.3125 L 19.742188 16.3125 C 19.742188 19.40625 19.757812 22.335938 19.742188 25.355469 C 19.746094 27.207031 19.910156 28.855469 19.160156 30.238281 Z M 32.820312 29.308594 C 31.675781 33.222656 25.292969 33.351562 22.742188 30.761719 C 22.203125 30.15625 21.867188 29.835938 21.542969 29.132812 C 22.898438 28.355469 22.898438 28.355469 24.21875 27.589844 C 24.933594 28.691406 25.597656 29.296875 26.789062 29.546875 C 28.40625 29.742188 30.03125 29.1875 29.667969 27.46875 C 29.292969 26.066406 26.355469 25.726562 24.359375 24.226562 C 22.332031 22.863281 21.855469 19.554688 23.523438 17.664062 C 24.078125 16.964844 25.023438 16.441406 26.019531 16.191406 L 27.054688 16.058594 C 29.046875 16.015625 30.292969 16.542969 31.207031 17.5625 C 31.460938 17.820312 31.667969 18.097656 32.054688 18.703125 C 30.996094 19.378906 31 19.371094 29.480469 20.355469 C 29.15625 19.65625 28.617188 19.21875 28.046875 19.027344 C 27.164062 18.757812 26.050781 19.050781 25.816406 19.984375 C 25.738281 20.269531 25.753906 20.539062 25.882812 21.015625 C 26.238281 21.832031 27.441406 22.1875 28.519531 22.679688 C 31.621094 23.9375 32.667969 25.289062 32.925781 26.894531 C 33.175781 28.277344 32.867188 29.171875 32.820312 29.308594 Z M 32.820312 29.308594 "/>
</g>
</svg>
