<?xml version="1.0" encoding="UTF-8"?>
<svg xmlns="http://www.w3.org/2000/svg" xmlns:xlink="http://www.w3.org/1999/xlink" width="36px" height="36px" viewBox="0 0 36 36" version="1.1">
<g id="surface1">
<path style=" stroke:none;fill-rule:nonzero;fill:rgb(3.921569%,40%,76.078431%);fill-opacity:1;" d="M 30.671875 30.679688 L 25.339844 30.679688 L 25.339844 22.324219 C 25.339844 20.332031 25.300781 17.769531 22.5625 17.769531 C 19.78125 17.769531 19.359375 19.9375 19.359375 22.175781 L 19.359375 30.679688 L 14.027344 30.679688 L 14.027344 13.5 L 19.148438 13.5 L 19.148438 15.839844 L 19.214844 15.839844 C 19.933594 14.492188 21.671875 13.066406 24.273438 13.066406 C 29.671875 13.066406 30.671875 16.621094 30.671875 21.25 Z M 8.003906 11.148438 C 6.289062 11.148438 4.910156 9.761719 4.910156 8.050781 C 4.910156 6.34375 6.289062 4.957031 8.003906 4.957031 C 9.714844 4.957031 11.101562 6.34375 11.101562 8.050781 C 11.101562 9.761719 9.714844 11.148438 8.003906 11.148438 Z M 10.679688 30.679688 L 5.332031 30.679688 L 5.332031 13.5 L 10.679688 13.5 Z M 33.335938 0 L 2.65625 0 C 1.1875 0 0 1.160156 0 2.59375 L 0 33.40625 C 0 34.839844 1.1875 36 2.65625 36 L 33.332031 36 C 34.800781 36 36 34.839844 36 33.40625 L 36 2.59375 C 36 1.160156 34.800781 0 33.332031 0 Z M 33.335938 0 "/>
</g>
</svg>
