<?xml version="1.0" encoding="UTF-8"?>
<svg xmlns="http://www.w3.org/2000/svg" xmlns:xlink="http://www.w3.org/1999/xlink" width="36px" height="36px" viewBox="0 0 36 36" version="1.1">
<g id="surface1">
<path style=" stroke:none;fill-rule:nonzero;fill:rgb(38.039216%,85.490196%,98.431373%);fill-opacity:1;" d="M 21.207031 18 C 21.207031 19.769531 19.769531 21.207031 18 21.207031 C 16.230469 21.207031 14.792969 19.769531 14.792969 18 C 14.792969 16.230469 16.230469 14.792969 18 14.792969 C 19.769531 14.792969 21.207031 16.230469 21.207031 18 Z M 21.207031 18 "/>
<path style=" stroke:none;fill-rule:nonzero;fill:rgb(38.039216%,85.490196%,98.431373%);fill-opacity:1;" d="M 30.179688 12.710938 C 29.558594 12.488281 28.914062 12.261719 28.238281 12.066406 C 28.40625 11.390625 28.546875 10.714844 28.660156 10.070312 C 29.25 6.355469 28.601562 3.742188 26.804688 2.726562 C 26.269531 2.417969 25.679688 2.277344 25.003906 2.277344 C 23.035156 2.277344 20.53125 3.742188 18 6.1875 C 15.46875 3.742188 12.964844 2.277344 10.996094 2.277344 C 10.320312 2.277344 9.730469 2.417969 9.195312 2.726562 C 7.398438 3.769531 6.75 6.382812 7.339844 10.070312 C 7.453125 10.714844 7.59375 11.390625 7.761719 12.066406 C 7.085938 12.261719 6.441406 12.460938 5.820312 12.710938 C 2.304688 14.0625 0.394531 15.917969 0.394531 18 C 0.394531 20.082031 2.335938 21.9375 5.820312 23.289062 C 6.441406 23.511719 7.085938 23.738281 7.761719 23.933594 C 7.59375 24.609375 7.453125 25.285156 7.339844 25.929688 C 6.75 29.644531 7.398438 32.257812 9.195312 33.273438 C 9.730469 33.582031 10.320312 33.722656 10.996094 33.722656 C 12.992188 33.722656 15.496094 32.257812 18 29.8125 C 20.53125 32.257812 23.035156 33.722656 25.003906 33.722656 C 25.679688 33.722656 26.269531 33.582031 26.804688 33.273438 C 28.601562 32.230469 29.25 29.617188 28.660156 25.929688 C 28.546875 25.285156 28.40625 24.609375 28.238281 23.933594 C 28.914062 23.738281 29.558594 23.539062 30.179688 23.289062 C 33.695312 21.9375 35.605469 20.082031 35.605469 18 C 35.605469 15.917969 33.695312 14.0625 30.179688 12.710938 Z M 26.015625 4.132812 C 27.167969 4.808594 27.5625 6.890625 27.085938 9.84375 C 27 10.433594 26.859375 11.054688 26.691406 11.699219 C 25.226562 11.363281 23.679688 11.136719 22.050781 10.996094 C 21.09375 9.648438 20.109375 8.4375 19.125 7.339844 C 21.207031 5.289062 23.316406 3.882812 25.03125 3.882812 C 25.398438 3.882812 25.734375 3.964844 26.015625 4.132812 Z M 22.867188 20.8125 C 22.359375 21.710938 21.769531 22.613281 21.148438 23.511719 C 20.109375 23.597656 19.070312 23.625 18 23.625 C 16.902344 23.625 15.863281 23.597656 14.851562 23.511719 C 14.230469 22.613281 13.667969 21.710938 13.164062 20.8125 C 12.628906 19.882812 12.121094 18.929688 11.671875 18 C 12.121094 17.070312 12.628906 16.117188 13.164062 15.1875 C 13.667969 14.289062 14.257812 13.386719 14.878906 12.488281 C 15.917969 12.402344 16.960938 12.375 18.027344 12.375 C 19.125 12.375 20.164062 12.402344 21.179688 12.488281 C 21.796875 13.386719 22.359375 14.289062 22.867188 15.1875 C 23.398438 16.117188 23.90625 17.070312 24.355469 18 C 23.878906 18.929688 23.398438 19.855469 22.867188 20.8125 Z M 25.199219 19.882812 C 25.621094 20.867188 25.960938 21.824219 26.269531 22.78125 C 25.3125 23.007812 24.300781 23.175781 23.230469 23.316406 C 23.570312 22.78125 23.933594 22.21875 24.242188 21.628906 C 24.582031 21.039062 24.890625 20.445312 25.199219 19.882812 Z M 18 27.507812 C 17.324219 26.773438 16.679688 25.988281 16.058594 25.171875 C 16.707031 25.199219 17.351562 25.226562 18 25.226562 C 18.648438 25.226562 19.292969 25.199219 19.941406 25.171875 C 19.320312 25.988281 18.675781 26.773438 18 27.507812 Z M 12.769531 23.289062 C 11.699219 23.148438 10.6875 22.976562 9.730469 22.753906 C 10.039062 21.824219 10.378906 20.839844 10.800781 19.855469 C 11.109375 20.417969 11.417969 21.007812 11.757812 21.570312 C 12.09375 22.191406 12.429688 22.726562 12.769531 23.289062 Z M 10.800781 16.117188 C 10.378906 15.132812 10.039062 14.175781 9.730469 13.21875 C 10.6875 12.992188 11.699219 12.824219 12.769531 12.683594 C 12.429688 13.21875 12.066406 13.78125 11.757812 14.371094 C 11.417969 14.960938 11.109375 15.554688 10.800781 16.117188 Z M 18 8.492188 C 18.675781 9.226562 19.320312 10.011719 19.941406 10.828125 C 19.292969 10.800781 18.648438 10.773438 18 10.773438 C 17.351562 10.773438 16.707031 10.800781 16.058594 10.828125 C 16.679688 10.011719 17.324219 9.226562 18 8.492188 Z M 24.242188 14.398438 L 23.230469 12.710938 C 24.300781 12.851562 25.3125 13.023438 26.269531 13.246094 C 25.960938 14.175781 25.621094 15.160156 25.199219 16.144531 C 24.890625 15.554688 24.582031 14.960938 24.242188 14.398438 Z M 8.914062 9.84375 C 8.4375 6.890625 8.832031 4.808594 9.984375 4.132812 C 10.265625 3.964844 10.601562 3.882812 10.96875 3.882812 C 12.65625 3.882812 14.765625 5.257812 16.875 7.339844 C 15.890625 8.410156 14.90625 9.648438 13.949219 10.996094 C 12.320312 11.136719 10.773438 11.390625 9.308594 11.699219 C 9.140625 11.054688 9.027344 10.433594 8.914062 9.84375 Z M 1.96875 18 C 1.96875 16.679688 3.570312 15.273438 6.382812 14.230469 C 6.945312 14.007812 7.566406 13.808594 8.183594 13.640625 C 8.632812 15.046875 9.195312 16.539062 9.871094 18.027344 C 9.195312 19.519531 8.605469 20.980469 8.183594 22.386719 C 4.304688 21.261719 1.96875 19.574219 1.96875 18 Z M 9.984375 31.867188 C 8.832031 31.191406 8.4375 29.109375 8.914062 26.15625 C 9 25.566406 9.140625 24.945312 9.308594 24.300781 C 10.773438 24.636719 12.320312 24.863281 13.949219 25.003906 C 14.90625 26.351562 15.890625 27.5625 16.875 28.660156 C 14.792969 30.710938 12.683594 32.117188 10.96875 32.117188 C 10.601562 32.117188 10.265625 32.035156 9.984375 31.867188 Z M 27.085938 26.15625 C 27.5625 29.109375 27.167969 31.191406 26.015625 31.867188 C 25.734375 32.035156 25.398438 32.117188 25.03125 32.117188 C 23.34375 32.117188 21.234375 30.742188 19.125 28.660156 C 20.109375 27.589844 21.09375 26.351562 22.050781 25.003906 C 23.679688 24.863281 25.226562 24.609375 26.691406 24.300781 C 26.859375 24.945312 26.972656 25.566406 27.085938 26.15625 Z M 29.617188 21.769531 C 29.054688 21.992188 28.433594 22.191406 27.816406 22.359375 C 27.367188 20.953125 26.804688 19.460938 26.128906 17.972656 C 26.804688 16.480469 27.394531 15.019531 27.816406 13.613281 C 31.695312 14.738281 34.03125 16.425781 34.03125 18 C 34.03125 19.320312 32.398438 20.726562 29.617188 21.769531 Z M 29.617188 21.769531 "/>
</g>
</svg>
