<?xml version="1.0" encoding="UTF-8"?>
<svg xmlns="http://www.w3.org/2000/svg" xmlns:xlink="http://www.w3.org/1999/xlink" width="36px" height="36px" viewBox="0 0 36 36" version="1.1">
<g id="surface1">
<path style=" stroke:none;fill-rule:nonzero;fill:rgb(78.039216%,39.215686%,58.431373%);fill-opacity:1;" d="M 18 36 C 27.941406 36 36 27.941406 36 18 C 36 8.058594 27.941406 0 18 0 C 8.058594 0 0 8.058594 0 18 C 0 27.941406 8.058594 36 18 36 Z M 9.617188 10.136719 C 11.941406 7.964844 15.171875 6.296875 18.15625 5.238281 C 23.171875 3.453125 28.476562 4.507812 29.289062 7.707031 L 29.179688 7.605469 C 29.96875 10.753906 27.246094 14.515625 23.757812 15.863281 C 20.652344 17.074219 18.066406 16.875 17.007812 16.539062 C 15.792969 16.132812 15.09375 15.34375 14.914062 14.894531 C 14.847656 14.714844 14.734375 14.421875 14.914062 14.332031 C 15.027344 14.261719 15.070312 14.285156 15.386719 14.625 C 15.679688 14.941406 16.828125 15.792969 19.03125 15.546875 C 24.816406 14.894531 28.277344 10.414062 27.179688 8.011719 C 26.414062 6.324219 21.980469 5.554688 16.421875 8.324219 C 9.648438 11.699219 9.265625 14.488281 9.222656 15.546875 C 9.066406 18.449219 12.820312 19.976562 14.847656 22.160156 C 14.914062 22.207031 14.960938 22.25 15.003906 22.320312 C 15.609375 22.070312 16.46875 21.957031 17.816406 21.933594 C 21.101562 21.890625 22.945312 24.050781 22.878906 25.984375 C 22.8125 27.515625 21.414062 28.144531 21.167969 28.191406 C 20.988281 28.214844 20.875 28.214844 20.851562 28.078125 C 20.832031 27.988281 20.898438 27.945312 21.125 27.808594 C 21.351562 27.671875 22 27.199219 22.136719 26.390625 C 22.273438 25.582031 21.640625 23.601562 18.492188 23.242188 C 17.367188 23.105469 16.488281 23.195312 15.746094 23.398438 C 16.289062 24.589844 16.398438 27.019531 15.140625 28.910156 C 13.835938 30.84375 11.40625 32.039062 9.042969 31.382812 C 8.277344 31.183594 7.105469 29.605469 8.121094 27.402344 C 9.066406 25.308594 13.097656 23.285156 13.648438 23.015625 L 13.648438 23.003906 C 11.78125 21.394531 7.234375 19.226562 6.59375 15.910156 C 6.414062 14.96875 6.851562 12.71875 9.617188 10.136719 Z M 9.617188 10.136719 "/>
<path style=" stroke:none;fill-rule:nonzero;fill:rgb(78.039216%,39.215686%,58.431373%);fill-opacity:1;" d="M 10.203125 29.640625 C 10.832031 30.003906 12.292969 29.574219 13.339844 28.433594 C 13.683594 28.058594 13.960938 27.652344 14.171875 27.21875 C 14.210938 27.136719 14.253906 27.046875 14.289062 26.953125 L 14.386719 26.683594 C 14.65625 25.867188 14.683594 24.964844 14.421875 23.996094 L 14.261719 24.089844 L 14.261719 24.09375 C 14.261719 24.09375 12.386719 24.980469 11.082031 26.355469 C 9.867188 27.640625 9.53125 29.25 10.203125 29.640625 Z M 10.203125 29.640625 "/>
</g>
</svg>
