<?xml version="1.0" encoding="UTF-8"?>
<svg xmlns="http://www.w3.org/2000/svg" xmlns:xlink="http://www.w3.org/1999/xlink" width="36px" height="36px" viewBox="0 0 36 22" version="1.1">
<defs>
<clipPath id="clip1">
  <path d="M 0 0 L 36 0 L 36 21.601562 L 0 21.601562 Z M 0 0 "/>
</clipPath>
</defs>
<g id="surface1">
<g clip-path="url(#clip1)" clip-rule="nonzero">
<path style=" stroke:none;fill-rule:evenodd;fill:rgb(21.960784%,74.117647%,97.254902%);fill-opacity:1;" d="M 18 0 C 13.199219 0 10.199219 2.398438 9 7.199219 C 10.800781 4.800781 12.898438 3.898438 15.300781 4.5 C 16.667969 4.84375 17.648438 5.835938 18.730469 6.933594 C 20.496094 8.726562 22.539062 10.800781 27 10.800781 C 31.800781 10.800781 34.800781 8.398438 36 3.601562 C 34.199219 6 32.101562 6.898438 29.699219 6.300781 C 28.332031 5.957031 27.351562 4.964844 26.269531 3.863281 C 24.503906 2.074219 22.460938 0 18 0 Z M 9 10.800781 C 4.199219 10.800781 1.199219 13.199219 0 18 C 1.800781 15.601562 3.898438 14.699219 6.300781 15.300781 C 7.667969 15.644531 8.648438 16.636719 9.730469 17.734375 C 11.496094 19.527344 13.539062 21.601562 18 21.601562 C 22.800781 21.601562 25.800781 19.199219 27 14.398438 C 25.199219 16.800781 23.101562 17.699219 20.699219 17.101562 C 19.332031 16.757812 18.351562 15.765625 17.269531 14.664062 C 15.503906 12.875 13.460938 10.800781 9 10.800781 Z M 9 10.800781 "/>
</g>
</g>
</svg>
