<?xml version="1.0" encoding="UTF-8"?>
<svg xmlns="http://www.w3.org/2000/svg" xmlns:xlink="http://www.w3.org/1999/xlink" width="36px" height="36px" viewBox="0 0 36 21" version="1.1">
<g id="surface1">
<path style=" stroke:none;fill-rule:nonzero;fill:rgb(49.803922%,32.941176%,70.196078%);fill-opacity:1;" d="M 3.339844 0 L 32.644531 0 C 34.5 0 36 1.464844 36 3.273438 L 36 14.191406 C 36 16.003906 34.5 17.46875 32.644531 17.46875 L 22.136719 17.46875 L 23.578125 20.914062 L 17.234375 17.46875 L 3.355469 17.46875 C 1.5 17.46875 0 16.003906 0 14.191406 L 0 3.273438 C -0.015625 1.480469 1.488281 0 3.339844 0 Z M 3.339844 0 "/>
<path style=" stroke:none;fill-rule:nonzero;fill:rgb(100%,100%,100%);fill-opacity:1;" d="M 2.050781 2.984375 C 2.253906 2.714844 2.5625 2.570312 2.972656 2.542969 C 3.71875 2.484375 4.144531 2.828125 4.246094 3.570312 C 4.699219 6.554688 5.195312 9.085938 5.722656 11.15625 L 8.929688 5.199219 C 9.222656 4.65625 9.585938 4.371094 10.027344 4.34375 C 10.667969 4.300781 11.066406 4.699219 11.226562 5.542969 C 11.589844 7.441406 12.058594 9.054688 12.617188 10.425781 C 12.996094 6.800781 13.640625 4.183594 14.546875 2.570312 C 14.765625 2.171875 15.089844 1.972656 15.511719 1.941406 C 15.851562 1.914062 16.15625 2.015625 16.433594 2.226562 C 16.714844 2.441406 16.859375 2.714844 16.890625 3.042969 C 16.902344 3.300781 16.859375 3.515625 16.742188 3.726562 C 16.171875 4.757812 15.703125 6.484375 15.324219 8.882812 C 14.957031 11.210938 14.824219 13.027344 14.914062 14.328125 C 14.941406 14.683594 14.882812 14.996094 14.738281 15.269531 C 14.5625 15.582031 14.300781 15.753906 13.960938 15.785156 C 13.582031 15.8125 13.1875 15.640625 12.804688 15.253906 C 11.445312 13.898438 10.363281 11.871094 9.570312 9.171875 C 8.621094 11 7.917969 12.371094 7.464844 13.285156 C 6.601562 14.898438 5.871094 15.726562 5.253906 15.769531 C 4.859375 15.796875 4.523438 15.46875 4.230469 14.785156 C 3.484375 12.914062 2.679688 9.296875 1.816406 3.941406 C 1.757812 3.570312 1.84375 3.242188 2.050781 2.984375 Z M 33.5 5.226562 C 32.972656 4.328125 32.195312 3.785156 31.15625 3.570312 C 30.878906 3.515625 30.617188 3.484375 30.367188 3.484375 C 28.960938 3.484375 27.820312 4.199219 26.929688 5.628906 C 26.167969 6.839844 25.789062 8.183594 25.789062 9.65625 C 25.789062 10.753906 26.019531 11.699219 26.488281 12.484375 C 27.015625 13.382812 27.792969 13.925781 28.832031 14.140625 C 29.109375 14.199219 29.371094 14.226562 29.621094 14.226562 C 31.039062 14.226562 32.183594 13.511719 33.058594 12.082031 C 33.820312 10.855469 34.203125 9.511719 34.203125 8.042969 C 34.214844 6.925781 33.96875 6 33.5 5.226562 Z M 31.65625 9.183594 C 31.449219 10.128906 31.085938 10.828125 30.542969 11.296875 C 30.117188 11.667969 29.722656 11.828125 29.359375 11.753906 C 29.007812 11.683594 28.714844 11.382812 28.496094 10.828125 C 28.320312 10.382812 28.230469 9.941406 28.230469 9.527344 C 28.230469 9.171875 28.261719 8.8125 28.332031 8.484375 C 28.464844 7.898438 28.714844 7.328125 29.109375 6.785156 C 29.59375 6.085938 30.105469 5.800781 30.632812 5.898438 C 30.980469 5.96875 31.273438 6.269531 31.496094 6.828125 C 31.671875 7.269531 31.757812 7.714844 31.757812 8.128906 C 31.757812 8.5 31.730469 8.855469 31.65625 9.183594 Z M 24.339844 5.226562 C 23.8125 4.328125 23.019531 3.785156 21.996094 3.570312 C 21.71875 3.515625 21.457031 3.484375 21.207031 3.484375 C 19.800781 3.484375 18.660156 4.199219 17.769531 5.628906 C 17.007812 6.839844 16.625 8.183594 16.625 9.65625 C 16.625 10.753906 16.859375 11.699219 17.328125 12.484375 C 17.855469 13.382812 18.632812 13.925781 19.671875 14.140625 C 19.949219 14.199219 20.210938 14.226562 20.460938 14.226562 C 21.878906 14.226562 23.019531 13.511719 23.898438 12.082031 C 24.660156 10.855469 25.039062 9.511719 25.039062 8.042969 C 25.039062 6.925781 24.808594 6 24.339844 5.226562 Z M 22.480469 9.183594 C 22.273438 10.128906 21.910156 10.828125 21.367188 11.296875 C 20.941406 11.667969 20.546875 11.828125 20.183594 11.753906 C 19.832031 11.683594 19.539062 11.382812 19.320312 10.828125 C 19.144531 10.382812 19.054688 9.941406 19.054688 9.527344 C 19.054688 9.171875 19.085938 8.8125 19.15625 8.484375 C 19.289062 7.898438 19.539062 7.328125 19.933594 6.785156 C 20.417969 6.085938 20.929688 5.800781 21.457031 5.898438 C 21.808594 5.96875 22.097656 6.269531 22.320312 6.828125 C 22.496094 7.269531 22.582031 7.714844 22.582031 8.128906 C 22.597656 8.5 22.554688 8.855469 22.480469 9.183594 Z M 22.480469 9.183594 "/>
</g>
</svg>
