<?xml version="1.0" encoding="UTF-8"?>
<svg xmlns="http://www.w3.org/2000/svg" xmlns:xlink="http://www.w3.org/1999/xlink" width="36px" height="36px" viewBox="0 0 36 36" version="1.1">
<g id="surface1">
<path style=" stroke:none;fill-rule:nonzero;fill:rgb(12.941176%,45.882353%,60.784314%);fill-opacity:1;" d="M 5.398438 0 L 30.601562 0 C 33.582031 0 36 2.417969 36 5.398438 L 36 30.601562 C 36 33.582031 33.582031 36 30.601562 36 L 5.398438 36 C 2.417969 36 0 33.582031 0 30.601562 L 0 5.398438 C 0 2.417969 2.417969 0 5.398438 0 Z M 5.398438 0 "/>
<path style="fill:none;stroke-width:20;stroke-linecap:butt;stroke-linejoin:miter;stroke:rgb(100%,100%,100%);stroke-opacity:1;stroke-miterlimit:4;" d="M 446 256 C 446 360.944444 360.944444 446 256 446 C 151.055556 446 66 360.944444 66 256 C 66 151.055556 151.055556 66 256 66 C 360.944444 66 446 151.055556 446 256 Z M 446 256 " transform="matrix(0.0703125,0,0,0.0703125,0,0)"/>
<path style=" stroke:none;fill-rule:nonzero;fill:rgb(100%,100%,100%);fill-opacity:1;" d="M 14.34375 30.65625 L 18.28125 19.125 L 22.359375 30.304688 L 24.398438 29.179688 L 28.335938 17.789062 C 29.039062 15.960938 29.25 14.484375 29.25 13.21875 C 29.320312 10.898438 28.335938 8.859375 26.648438 8.648438 C 25.101562 8.507812 24.257812 9.984375 24.328125 10.898438 C 24.46875 13.007812 26.578125 14.203125 26.578125 17.085938 C 26.578125 19.195312 25.242188 22.5 24.328125 25.664062 L 19.757812 12.023438 C 20.53125 11.953125 21.234375 11.953125 21.234375 11.953125 C 21.9375 11.882812 21.867188 10.828125 21.164062 10.898438 C 18.84375 11.109375 16.734375 11.039062 14.414062 10.898438 C 13.710938 10.828125 13.640625 11.882812 14.34375 11.953125 C 14.34375 11.953125 14.976562 11.953125 15.679688 12.023438 L 17.648438 17.4375 L 14.835938 25.804688 L 10.265625 12.023438 C 11.039062 11.953125 11.671875 11.953125 11.671875 11.953125 C 12.375 11.882812 12.304688 10.828125 11.601562 10.898438 C 9.492188 11.039062 7.453125 11.179688 6.960938 10.828125 L 6.328125 12.585938 L 12.515625 29.671875 Z M 14.34375 30.65625 "/>
</g>
</svg>
